<svg width="24" height="24" viewBox="0 0 24 24" fill="none" xmlns="http://www.w3.org/2000/svg">
<path d="M19.7143 3H4.24554C3.5625 3 3 3.60268 3 4.32589V19.7143C3 20.4375 3.5625 21 4.24554 21H19.7143C20.3973 21 21 20.4375 21 19.7143V4.32589C21 3.60268 20.3973 3 19.7143 3ZM8.42411 18.4286H5.77232V9.87054H8.42411V18.4286ZM7.09821 8.66518C6.21429 8.66518 5.53125 7.98214 5.53125 7.13839C5.53125 6.29464 6.21429 5.57143 7.09821 5.57143C7.94196 5.57143 8.625 6.29464 8.625 7.13839C8.625 7.98214 7.94196 8.66518 7.09821 8.66518ZM18.4286 18.4286H15.7366V14.25C15.7366 13.2857 15.7366 12 14.3705 12C12.9643 12 12.7634 13.0848 12.7634 14.2098V18.4286H10.1116V9.87054H12.6429V11.0357H12.683C13.0446 10.3527 13.9286 9.62946 15.2143 9.62946C17.9062 9.62946 18.4286 11.4375 18.4286 13.7277V18.4286Z" fill="#1A285D"/>
</svg>
