<svg width="24" height="24" viewBox="0 0 24 24" fill="none" xmlns="http://www.w3.org/2000/svg">
<path fill-rule="evenodd" clip-rule="evenodd" d="M18.976 5.57387C18.0035 4.60136 16.3422 4.60136 15.3697 5.57387L12.9656 7.97803C12.5946 8.34903 11.9931 8.34903 11.6221 7.97803C11.2511 7.60703 11.2511 7.00553 11.6221 6.63453L14.0262 4.23037C15.7407 2.51586 18.605 2.51586 20.3195 4.23037C22.034 5.94487 22.034 8.80911 20.3195 10.5236L16.8547 13.9884C15.1402 15.7029 12.2759 15.7029 10.5614 13.9884C10.1904 13.6174 10.1904 13.0159 10.5614 12.6449C10.9324 12.2739 11.5339 12.2739 11.9049 12.6449C12.8774 13.6174 14.5386 13.6174 15.5112 12.6449L18.976 9.18011C19.9485 8.20761 19.9485 6.54637 18.976 5.57387Z" fill="#1A285D"/>
<path fill-rule="evenodd" clip-rule="evenodd" d="M12.8949 11.6552C11.9224 10.6827 10.2612 10.6827 9.28867 11.6552L5.82385 15.12C4.85135 16.0925 4.85135 17.7537 5.82385 18.7262C6.79636 19.6987 8.45759 19.6987 9.4301 18.7262L11.8343 16.3221C12.2053 15.9511 12.8068 15.9511 13.1778 16.3221C13.5488 16.6931 13.5488 17.2946 13.1778 17.6656L10.7736 20.0697C9.0591 21.7842 6.19485 21.7842 4.48035 20.0697C2.76585 18.3552 2.76585 15.491 4.48035 13.7765L7.94517 10.3117C9.65967 8.59716 12.5239 8.59716 14.2384 10.3117C14.6094 10.6827 14.6094 11.2842 14.2384 11.6552C13.8674 12.0262 13.2659 12.0262 12.8949 11.6552Z" fill="#1A285D"/>
</svg>
