<svg width="24" height="24" viewBox="0 0 24 24" fill="none" xmlns="http://www.w3.org/2000/svg">
<path d="M20.6484 9.55239C19.8398 10.1976 18.8203 10.9862 15.2344 13.6388C14.5312 14.1765 13.2305 15.3594 12 15.3594C10.7344 15.3594 9.46875 14.1765 8.73047 13.6388C5.14453 10.9862 4.125 10.1976 3.31641 9.55239C3.17578 9.44485 3 9.55239 3 9.73162V17.0441C3 18.0119 3.73828 18.7647 4.6875 18.7647H19.3125C20.2266 18.7647 21 18.0119 21 17.0441V9.73162C21 9.55239 20.7891 9.44485 20.6484 9.55239ZM12 14.1765C12.8086 14.2123 13.9688 13.1369 14.5664 12.7068C19.2422 9.26562 19.5938 8.94301 20.6484 8.08272C20.8594 7.93934 21 7.68842 21 7.40165V6.72059C21 5.7886 20.2266 5 19.3125 5H4.6875C3.73828 5 3 5.7886 3 6.72059V7.40165C3 7.68842 3.10547 7.93934 3.31641 8.08272C4.37109 8.94301 4.72266 9.26562 9.39844 12.7068C9.99609 13.1369 11.1562 14.2123 12 14.1765Z" fill="#1A285D"/>
</svg>
