<svg width="24" height="24" viewBox="0 0 24 24" fill="none" xmlns="http://www.w3.org/2000/svg">
<path d="M11.6562 12.0312C11.8438 11.7188 11.875 10.5625 11.5938 10.5625C11.5312 10.5625 11.5 11.5312 11.6562 12.0312ZM11.625 13.5C11.375 14.125 11.0625 14.8438 10.7188 15.4375C11.3125 15.2188 11.9375 14.9062 12.6875 14.7812C12.3125 14.4688 11.9062 14.0312 11.625 13.5ZM8.6875 17.4062C8.6875 17.4062 9.09375 17.2188 9.78125 16.125C9.5625 16.3438 8.84375 16.9062 8.6875 17.4062ZM13.75 9C13.3125 9 13 8.6875 13 8.25V4H6.75C6.3125 4 6 4.34375 6 4.75V19.25C6 19.6875 6.3125 20 6.75 20H17.25C17.6562 20 18 19.6875 18 19.25V9H13.75ZM13.5 14.375C14.0938 14.3125 15.3438 14.1875 15.7812 14.5938C16.1562 14.9688 16.0938 15.9688 15.1562 15.9688C14.6562 15.9688 13.8438 15.7188 13.1562 15.3438C12.4062 15.4688 11.5 15.8125 10.6875 16.0938C9.90625 17.4375 9.34375 18 8.78125 18C8.625 18 8.28125 17.9062 8.125 17.6875C7.53125 16.9688 8.96875 16 9.8125 15.5625C9.8125 15.5625 9.8125 15.5625 9.84375 15.5625C10.2188 14.9062 10.75 13.75 11.0938 12.875C10.8438 11.875 10.6875 11.0625 10.8438 10.4688C11.0312 9.875 12.1875 9.78125 12.3438 10.6875C12.5 11.25 12.2812 12.125 12.1562 12.6875C12.4375 13.4688 12.875 14 13.5 14.375ZM17.7812 7.28125L14.7188 4.21875C14.5625 4.09375 14.375 4 14.1875 4H14V8H18V7.8125C18 7.625 17.9062 7.4375 17.7812 7.28125ZM15.4375 15.2812C15.5938 15.1875 15.375 14.9062 14.125 15C15.2812 15.5 15.4375 15.2812 15.4375 15.2812Z" fill="#1A285D"/>
</svg>
