<svg width="24" height="24" viewBox="0 0 24 24" fill="none" xmlns="http://www.w3.org/2000/svg">
<path d="M21.5612 7.30339C21.3419 6.39714 20.6472 5.67969 19.8062 5.45312C18.234 5 12.0183 5 12.0183 5C12.0183 5 5.766 5 4.19378 5.45312C3.35283 5.67969 2.65814 6.39714 2.43876 7.30339C2 8.88932 2 12.2878 2 12.2878C2 12.2878 2 15.6484 2.43876 17.2721C2.65814 18.1784 3.35283 18.8581 4.19378 19.0846C5.766 19.5 12.0183 19.5 12.0183 19.5C12.0183 19.5 18.234 19.5 19.8062 19.0846C20.6472 18.8581 21.3419 18.1784 21.5612 17.2721C22 15.6484 22 12.2878 22 12.2878C22 12.2878 22 8.88932 21.5612 7.30339ZM9.97075 15.3464V9.22917L15.1627 12.2878L9.97075 15.3464Z" fill="#1A285D"/>
</svg>
