<svg width="24" height="24" viewBox="0 0 24 24" fill="none" xmlns="http://www.w3.org/2000/svg">
<path d="M11.2708 21.5902C11.599 22.1366 12.3646 22.1366 12.6927 21.5902C18.0156 13.3951 19 12.5366 19 9.49268C19 5.3561 15.8646 2 12 2C8.09896 2 5 5.3561 5 9.49268C5 12.5366 5.94792 13.3951 11.2708 21.5902ZM12 12.6146C10.3594 12.6146 9.08333 11.2488 9.08333 9.49268C9.08333 7.77561 10.3594 6.37073 12 6.37073C13.6042 6.37073 14.9167 7.77561 14.9167 9.49268C14.9167 11.2488 13.6042 12.6146 12 12.6146Z" fill="#1A285D"/>
</svg>
