<svg width="32" height="32" viewBox="0 0 32 32" fill="none" xmlns="http://www.w3.org/2000/svg">
<path d="M27.5313 12.7364C26.4531 13.5967 25.0938 14.6481 20.3125 18.1849C19.375 18.9018 17.6406 20.479 16 20.479C14.3125 20.479 12.625 18.9018 11.6406 18.1849C6.85938 14.6481 5.5 13.5967 4.42188 12.7364C4.23438 12.593 4 12.7364 4 12.9753V22.7253C4 24.0158 4.98438 25.0194 6.25 25.0194H25.75C26.9688 25.0194 28 24.0158 28 22.7253V12.9753C28 12.7364 27.7188 12.593 27.5313 12.7364ZM16 18.9018C17.0781 18.9496 18.625 17.5158 19.4219 16.9422C25.6563 12.354 26.125 11.9239 27.5313 10.7768C27.8125 10.5856 28 10.2511 28 9.86871V8.96062C28 7.71797 26.9688 6.6665 25.75 6.6665H6.25C4.98438 6.6665 4 7.71797 4 8.96062V9.86871C4 10.2511 4.14063 10.5856 4.42188 10.7768C5.82813 11.9239 6.29688 12.354 12.5313 16.9422C13.3281 17.5158 14.875 18.9496 16 18.9018Z" fill="white"/>
</svg>
