<svg width="24" height="24" viewBox="0 0 24 24" fill="none" xmlns="http://www.w3.org/2000/svg">
<path d="M20.5068 15.7266L16.5616 14.0391C16.456 14.0039 16.3503 13.9688 16.2094 13.9688C15.9628 13.9688 15.7162 14.1094 15.5753 14.2852L13.8141 16.4297C11.0665 15.1289 8.88258 12.9492 7.57926 10.207L9.72798 8.44922C9.90411 8.30859 10.045 8.0625 10.045 7.78125C10.045 7.67578 10.0098 7.57031 9.97456 7.46484L8.28376 3.52734C8.14286 3.21094 7.82583 3 7.47358 3C7.43836 3 7.36791 3.03516 7.29746 3.03516L3.63405 3.87891C3.24658 3.98437 3 4.30078 3 4.6875C3 13.7227 10.2916 21 19.3444 21C19.7319 21 20.0489 20.7539 20.1546 20.3672L21 16.7109C21 16.6406 21 16.5703 21 16.5352C21 16.1836 20.7887 15.8672 20.5068 15.7266Z" fill="#1A285D"/>
</svg>
