<svg width="32" height="32" viewBox="0 0 32 32" fill="none" xmlns="http://www.w3.org/2000/svg">
<path d="M25.2858 6.59508C22.8453 4.09508 19.512 2.6665 15.9406 2.6665C8.67865 2.6665 2.72627 8.61889 2.72627 15.8808C2.72627 18.2617 3.38103 20.5236 4.51199 22.4879L2.66675 29.3332L9.63103 27.5475C11.5953 28.5594 13.7382 29.1546 15.9406 29.1546C23.262 29.1546 29.3334 23.2022 29.3334 15.9403C29.3334 12.3689 27.7858 9.09508 25.2858 6.59508ZM15.9406 26.8927C13.9763 26.8927 12.0715 26.357 10.3453 25.3451L9.98818 25.107L5.82151 26.2379L6.95246 22.1903L6.65484 21.7736C5.58341 19.9879 4.98818 17.9641 4.98818 15.8808C4.98818 9.86889 9.92865 4.92841 16.0001 4.92841C18.9167 4.92841 21.6548 6.05936 23.7382 8.14269C25.8215 10.226 27.0715 12.9641 27.0715 15.9403C27.0715 21.9522 22.012 26.8927 15.9406 26.8927ZM22.012 18.6784C21.6548 18.4998 20.0477 17.726 19.7501 17.607C19.4525 17.4879 19.2144 17.4284 18.9763 17.7856C18.7977 18.0832 18.1429 18.857 17.9644 19.0951C17.7263 19.2736 17.5477 19.3332 17.2501 19.1546C15.2858 18.2022 14.0358 17.4284 12.7263 15.226C12.3691 14.6308 13.0834 14.6903 13.6787 13.4403C13.7977 13.2022 13.7382 13.0236 13.6787 12.8451C13.6191 12.6665 12.9048 11.0594 12.6667 10.4046C12.3691 9.74984 12.131 9.80936 11.8929 9.80936C11.7144 9.80936 11.4763 9.80936 11.2977 9.80936C11.0596 9.80936 10.7025 9.86889 10.4048 10.226C10.1072 10.5832 9.27389 11.357 9.27389 12.9641C9.27389 14.6308 10.4048 16.1784 10.5834 16.4165C10.762 16.5951 12.9048 19.9284 16.2382 21.357C18.3215 22.3094 19.1548 22.3689 20.2263 22.1903C20.8215 22.1308 22.131 21.4165 22.4287 20.6427C22.7263 19.8689 22.7263 19.2141 22.6072 19.0951C22.5477 18.9165 22.3096 18.857 22.012 18.6784Z" fill="white"/>
</svg>
